<?xml version="1.0" encoding="UTF-8" standalone="no"?>
<!DOCTYPE svg PUBLIC "-//W3C//DTD SVG 1.1//EN" "http://www.w3.org/Graphics/SVG/1.1/DTD/svg11.dtd">
<svg width="100%" height="100%" viewBox="0 0 194 55" version="1.1" xmlns="http://www.w3.org/2000/svg" xmlns:xlink="http://www.w3.org/1999/xlink" xml:space="preserve" xmlns:serif="http://www.serif.com/" style="fill-rule:evenodd;clip-rule:evenodd;stroke-linejoin:round;stroke-miterlimit:2;">
    <path d="M193.689,9.9C193.692,9.805 193.671,9.71 193.63,9.624L193.182,9.624C192.207,9.624 191.582,9.666 189.825,9.666C189.225,9.666 188.325,9.624 188.108,9.624L187.6,9.624C187.541,9.666 187.52,9.879 187.52,9.956C187.514,10.075 187.549,10.192 187.62,10.288C188.311,10.392 188.986,10.582 189.63,10.854C189.999,11.453 190.195,12.143 190.196,12.847C190.214,13.137 190.234,13.431 190.234,14.232L190.234,18.309C190.237,18.589 190.224,18.869 190.196,19.148C189.864,18.777 189.396,18.078 188.616,17.197L182.095,9.977C182.011,9.879 181.913,9.793 181.805,9.722C181.648,9.722 181.375,9.704 181.221,9.704C179.969,9.704 177.707,9.645 177.375,9.645C177.331,9.73 177.304,9.823 177.295,9.918C177.308,10.043 177.327,10.167 177.354,10.289C177.907,10.378 178.419,10.637 178.819,11.03C179.211,11.397 179.557,11.811 179.85,12.261C179.916,12.463 179.943,12.675 179.931,12.887C179.931,13.901 179.872,15.324 179.872,16.687L179.872,20.649C179.876,21.145 179.838,21.641 179.757,22.131C179.183,22.652 178.472,22.999 177.708,23.131C177.663,23.242 177.637,23.361 177.631,23.481C177.631,23.54 177.649,23.736 177.687,23.757L178.058,23.757C178.45,23.757 179.348,23.698 179.932,23.698C180.792,23.698 181.376,23.757 182.177,23.757L183.348,23.757C183.425,23.736 183.448,23.502 183.448,23.425C183.447,23.317 183.427,23.211 183.389,23.11C182.487,23.005 181.654,22.574 181.046,21.9C180.873,21.105 180.789,20.294 180.794,19.481C180.794,18.859 180.773,17.998 180.773,16.848C180.773,15.303 180.794,13.956 180.811,13.275C180.93,13.411 181.066,13.586 181.164,13.705L190.181,23.834C190.275,23.934 190.629,23.949 190.726,23.949C190.806,23.956 190.886,23.943 190.96,23.911C191.077,23.633 191.137,23.335 191.135,23.033C191.135,22.47 191.114,21.883 191.114,21.589L191.114,13.449C191.114,11.008 192.268,10.323 193.614,10.267C193.668,10.151 193.694,10.024 193.691,9.896M171.324,16.096C171.324,19.047 170.506,21.642 169.394,22.558C168.809,23.03 168.075,23.278 167.324,23.258C166.29,23.314 165.3,22.815 164.73,21.95C163.921,20.385 163.524,18.638 163.576,16.877C163.576,14.164 164.276,12.038 165.527,11.003C166.091,10.514 166.812,10.243 167.559,10.241C168.608,10.234 169.598,10.736 170.213,11.587C171.049,12.934 171.439,14.512 171.325,16.094M174.856,16.468C174.968,13.948 173.613,11.579 171.384,10.398C170.254,9.75 168.976,9.406 167.674,9.398C165.015,9.429 162.541,10.794 161.097,13.027C160.36,14.21 159.969,15.577 159.968,16.971C159.969,19.203 160.999,21.314 162.758,22.688C164.049,23.629 165.612,24.123 167.209,24.093C168.224,24.092 169.23,23.9 170.174,23.527C171.212,23.133 172.142,22.498 172.887,21.674C174.184,20.253 174.889,18.388 174.856,16.464M157.7,14.012L157.7,10.033C157.7,9.739 157.585,9.662 157.291,9.662C156.704,9.662 153.623,9.739 150.501,9.739C148.078,9.739 146.068,9.701 144.977,9.701L143.529,9.701C143.277,9.701 143.2,9.757 143.2,10.033L143.2,13.76C143.294,13.816 143.402,13.842 143.511,13.837C143.655,13.843 143.8,13.831 143.941,13.799C144.465,12.44 145.428,11.293 146.675,10.54C147.259,10.481 148.409,10.463 148.72,10.463C148.741,10.676 148.762,11.363 148.779,12.18C148.8,13.58 148.8,14.19 148.8,17.505C148.8,20.376 148.779,21.666 148.741,21.977C148.664,22.522 148.762,22.932 146.419,23.029C146.369,23.173 146.349,23.325 146.36,23.477C146.357,23.582 146.364,23.688 146.381,23.792L147.14,23.792C147.864,23.792 149.559,23.712 150.266,23.712C150.829,23.712 152.647,23.771 153.836,23.771L154.381,23.771C154.43,23.64 154.45,23.501 154.44,23.362C154.444,23.241 154.417,23.12 154.363,23.012C153.672,23.062 152.98,22.935 152.353,22.641C152.234,22.162 152.174,21.67 152.175,21.176C152.157,19.067 152.137,18.267 152.137,16.861C152.137,15.046 152.158,13.819 152.158,10.441C152.431,10.441 153.058,10.42 153.64,10.441C154.572,10.627 155.401,11.156 155.962,11.923C156.394,12.588 156.743,13.304 157,14.054C157.108,14.083 157.22,14.094 157.332,14.089C157.459,14.088 157.586,14.062 157.703,14.012M140.881,20.355C140.886,20.167 140.879,19.979 140.86,19.792C140.772,19.738 140.668,19.717 140.566,19.733C140.422,19.727 140.277,19.739 140.136,19.771C139.682,20.93 138.943,21.957 137.989,22.757C137.526,22.948 137.022,23.022 136.524,22.97L134.924,22.97C134.493,22.977 134.062,22.944 133.637,22.87C133.343,22.814 133.037,22.346 132.896,22.035C132.697,21.657 132.621,21.227 132.679,20.804L132.679,16.53L133.403,16.53C133.814,16.542 134.218,16.636 134.592,16.806C134.971,16.968 135.281,17.258 135.47,17.624C135.647,18.148 135.759,18.692 135.802,19.243C135.965,19.302 136.139,19.328 136.312,19.32C136.448,19.327 136.583,19.294 136.7,19.225C136.7,18.697 136.581,17.274 136.581,16.491C136.581,15.516 136.717,14.169 136.781,13.466C136.66,13.41 136.527,13.384 136.393,13.389C136.222,13.378 136.05,13.398 135.886,13.448C135.827,13.717 135.61,14.539 135.571,14.598C135.269,15.087 134.797,15.448 134.246,15.612C133.875,15.707 133.495,15.759 133.113,15.769L132.7,15.769L132.7,13.953C132.7,12.082 132.738,11.477 132.756,11.124C132.777,10.89 132.815,10.638 132.836,10.463C133.225,10.419 133.616,10.405 134.007,10.421C135.136,10.421 135.664,10.442 135.839,10.442C136.287,10.441 136.724,10.578 137.091,10.834C137.861,11.516 138.496,12.337 138.962,13.254C139.097,13.285 139.236,13.298 139.375,13.292C139.49,13.292 139.511,13.254 139.669,13.173C139.669,11.984 139.589,10.442 139.55,9.953C139.529,9.753 139.491,9.701 139.102,9.701C138.945,9.701 138.202,9.663 137.424,9.663C136.312,9.663 135.861,9.681 134.162,9.681C133.246,9.681 131.351,9.702 130.55,9.702C129.382,9.702 128.386,9.664 127.879,9.664L127.215,9.664C127.155,9.757 127.121,9.864 127.115,9.975C127.117,10.11 127.152,10.243 127.215,10.363C127.695,10.401 128.172,10.473 128.642,10.58C129.064,10.867 129.325,11.339 129.342,11.849C129.384,12.258 129.401,13.391 129.401,14.29L129.401,18.308C129.401,19.13 129.383,20.318 129.363,20.808C129.327,21.445 129.183,22.072 128.936,22.661C128.371,22.861 127.776,22.96 127.177,22.955C127.116,23.09 127.082,23.236 127.077,23.385C127.08,23.508 127.114,23.629 127.177,23.735L127.82,23.735C128.446,23.735 130.747,23.676 131.275,23.676C131.764,23.676 132.702,23.714 133.831,23.714C134.457,23.714 136.293,23.833 140.231,23.833C140.408,23.849 140.586,23.836 140.759,23.795C140.814,23.699 140.841,23.59 140.836,23.48C140.878,23.092 140.878,21.938 140.878,20.358M124.368,21.043C124.283,20.752 124.006,20.557 123.704,20.575C123.662,20.575 123.604,20.593 123.568,20.593C122.752,21.989 121.258,22.858 119.641,22.876C117.933,22.885 116.378,21.868 115.7,20.3C115.3,19.16 115.097,17.959 115.1,16.751C115.061,15.585 115.26,14.422 115.684,13.335C116.544,11.073 117.793,10.366 119.317,10.366C120.576,10.426 121.735,11.079 122.439,12.125C122.885,12.86 123.219,13.656 123.432,14.489C123.573,14.523 123.717,14.541 123.862,14.545C124.03,14.528 124.192,14.467 124.33,14.37C124.313,14.153 124.117,12.653 124.117,12.185C124.117,11.598 124.271,10.643 124.271,10.272C124.04,10.137 123.779,10.062 123.512,10.055C123.257,10.292 123.034,10.561 122.848,10.855C121.621,9.882 120.08,9.389 118.516,9.47C116.688,9.415 114.915,10.113 113.616,11.4C112.193,12.867 111.437,14.858 111.529,16.9C111.465,19.171 112.488,21.341 114.281,22.736C115.624,23.636 117.214,24.094 118.83,24.047C120.732,24.177 122.587,23.401 123.83,21.956C124.052,21.676 124.237,21.368 124.379,21.04M109.182,9.9C109.183,9.805 109.163,9.71 109.123,9.624L108.672,9.624C107.697,9.624 107.072,9.666 105.315,9.666C104.715,9.666 103.815,9.624 103.598,9.624L103.091,9.624C103.032,9.666 103.011,9.879 103.011,9.956C103.004,10.075 103.039,10.193 103.111,10.288C103.802,10.393 104.478,10.583 105.122,10.854C105.488,11.454 105.683,12.144 105.685,12.847C105.706,13.137 105.727,13.431 105.727,14.232L105.727,18.309C105.731,18.589 105.717,18.87 105.685,19.148C105.356,18.777 104.885,18.078 104.105,17.197L97.591,9.977C97.506,9.878 97.407,9.792 97.297,9.722C97.14,9.722 96.867,9.704 96.713,9.704C95.461,9.704 93.199,9.645 92.867,9.645C92.824,9.73 92.798,9.823 92.79,9.918C92.802,10.043 92.82,10.166 92.846,10.289C93.399,10.378 93.911,10.637 94.311,11.03C94.705,11.396 95.053,11.81 95.346,12.261C95.41,12.463 95.436,12.675 95.423,12.887C95.423,13.901 95.367,15.324 95.367,16.687L95.367,20.649C95.37,21.146 95.331,21.641 95.248,22.131C94.674,22.652 93.963,22.999 93.199,23.131C93.155,23.243 93.129,23.361 93.122,23.481C93.122,23.54 93.14,23.736 93.178,23.757L93.549,23.757C93.941,23.757 94.839,23.698 95.423,23.698C96.283,23.698 96.867,23.757 97.668,23.757L98.836,23.757C98.913,23.736 98.936,23.502 98.936,23.425C98.935,23.317 98.915,23.211 98.877,23.11C97.976,23.004 97.145,22.574 96.538,21.9C96.367,21.105 96.283,20.294 96.286,19.481C96.286,18.859 96.265,17.998 96.265,16.848C96.265,15.303 96.286,13.956 96.303,13.275C96.422,13.411 96.558,13.586 96.656,13.705L105.67,23.834C105.839,23.918 106.026,23.958 106.215,23.949C106.295,23.957 106.376,23.944 106.449,23.911C106.566,23.633 106.626,23.335 106.624,23.033C106.624,22.47 106.603,21.883 106.603,21.589L106.603,13.449C106.603,11.008 107.757,10.323 109.103,10.267C109.157,10.151 109.185,10.024 109.183,9.896M89.883,23.42C89.884,23.287 89.864,23.155 89.824,23.028C89.34,22.996 88.858,22.937 88.38,22.853C88.027,22.422 87.798,21.904 87.716,21.353C87.699,20.416 87.678,18.482 87.678,16.671L87.678,11.871C87.66,11.489 87.786,11.113 88.031,10.819C88.552,10.493 89.154,10.317 89.769,10.312C89.806,10.192 89.825,10.067 89.825,9.941C89.823,9.829 89.788,9.719 89.725,9.626L89.159,9.626C88.341,9.626 86.428,9.726 85.759,9.726C85.35,9.726 83.437,9.67 82.577,9.649L82.15,9.649C82.076,9.743 82.04,9.862 82.05,9.981C82.053,10.105 82.066,10.229 82.088,10.352C82.608,10.346 83.124,10.439 83.609,10.625C84.054,11.059 84.29,11.665 84.256,12.286C84.274,12.657 84.291,13.457 84.312,15.251C84.333,16.227 84.35,17.594 84.35,18.723C84.35,19.289 84.312,20.559 84.291,21.244C84.272,21.647 84.181,22.044 84.022,22.415C83.788,22.607 83.55,22.96 82.122,23.058C82.084,23.191 82.064,23.329 82.063,23.467C82.063,23.624 82.101,23.701 82.101,23.799L82.433,23.799C83.216,23.799 85.167,23.699 86.181,23.699C86.475,23.699 88.503,23.758 89.146,23.758L89.8,23.758C89.85,23.654 89.876,23.541 89.877,23.426M74.227,13.233C74.254,14.444 73.555,15.56 72.454,16.065C71.929,16.18 71.392,16.232 70.854,16.219C70.612,16.225 70.37,16.212 70.13,16.181L70.109,14.52L70.109,10.928C70.095,10.775 70.137,10.622 70.228,10.498C70.491,10.403 70.771,10.363 71.05,10.383C72.571,10.383 73.235,10.519 73.781,11.439C74.091,11.985 74.246,12.605 74.229,13.233M79.89,23.443C79.888,23.3 79.854,23.158 79.79,23.03C79.348,23.041 78.908,22.955 78.503,22.778C78.381,22.623 78.27,22.459 78.171,22.289C77.934,21.525 77.654,20.776 77.332,20.044C76.999,19.187 76.51,18.399 75.888,17.722C75.431,17.443 74.938,17.227 74.423,17.079C74.112,16.96 73.857,16.862 73.623,16.764C73.887,16.71 74.154,16.672 74.423,16.649C75.199,16.655 75.956,16.4 76.57,15.925C77.358,15.325 77.809,14.38 77.78,13.39C77.797,11.813 76.817,10.387 75.339,9.838C74.571,9.669 73.786,9.596 73,9.621C71.535,9.621 69.486,9.757 68.511,9.757C68.217,9.757 66.518,9.719 65.836,9.719C65.542,9.719 64.801,9.681 64.686,9.681C64.632,9.798 64.598,9.924 64.586,10.052C64.588,10.171 64.601,10.289 64.624,10.405C64.956,10.443 65.561,10.52 65.872,10.58C66.243,10.841 66.528,11.208 66.69,11.632C66.814,13.289 66.854,14.95 66.809,16.611C66.809,18.6 66.83,20.905 66.732,21.646C66.725,22.195 66.418,22.698 65.932,22.954C65.564,23.018 65.193,23.063 64.82,23.09C64.759,23.211 64.725,23.343 64.72,23.478C64.732,23.586 64.758,23.692 64.797,23.793C65.073,23.793 68.059,23.734 68.682,23.734C69.93,23.734 70.982,23.793 72.098,23.793C72.141,23.7 72.167,23.601 72.175,23.499C72.174,23.359 72.148,23.221 72.098,23.09C71.706,23.052 71.22,22.933 71.004,22.89C70.473,22.639 70.142,22.092 70.165,21.505L70.151,17C70.32,16.985 70.489,16.979 70.658,16.982C71.024,16.987 71.382,17.095 71.69,17.293C72.33,17.61 72.867,18.104 73.235,18.716C73.9,20.028 74.316,21.452 74.462,22.916C74.521,23.325 74.675,23.675 75.049,23.716C75.203,23.737 76.238,23.775 76.979,23.775L79.773,23.775C79.847,23.681 79.888,23.565 79.888,23.446M58.692,13.33C58.726,14.248 58.364,15.137 57.699,15.771C57.1,16.169 56.385,16.353 55.668,16.295C55.388,16.301 55.108,16.288 54.829,16.257C54.672,16.24 54.574,16.219 54.574,16.121L54.595,10.404C54.97,10.345 55.348,10.311 55.728,10.304C57.053,10.304 57.875,10.636 58.263,11.454C58.551,12.036 58.698,12.678 58.693,13.328M62.186,13.405C62.201,11.969 61.388,10.646 60.1,10.012C58.973,9.652 57.789,9.5 56.607,9.564C55.107,9.564 52.761,9.679 51.729,9.679C51,9.68 49.909,9.6 49.3,9.6C49.243,9.694 49.209,9.801 49.2,9.911C49.192,10.044 49.212,10.178 49.259,10.303C49.63,10.418 50.234,10.516 50.626,10.614C50.935,10.905 51.123,11.302 51.15,11.726C51.209,12.411 51.25,13.268 51.25,14.751C51.25,18.87 51.232,21.038 51.173,21.506C51.101,22.142 50.667,22.683 50.061,22.891C49.687,22.978 49.309,23.044 48.928,23.091C48.903,23.226 48.89,23.363 48.89,23.5C48.885,23.594 48.905,23.688 48.946,23.773C49.572,23.773 51.408,23.696 52.11,23.696C53.848,23.696 55.624,23.773 56.344,23.773L56.834,23.773C56.884,23.677 56.904,23.569 56.893,23.462C56.902,23.343 56.888,23.223 56.851,23.109C56.191,23.098 55.55,22.88 55.019,22.487C54.748,22.166 54.608,21.753 54.627,21.333L54.568,17.043C55.739,17.12 56.988,17.158 57.668,17.158C58.436,17.159 59.199,17.041 59.93,16.808C61.309,16.253 62.206,14.894 62.175,13.408" style="fill-rule:nonzero;"/>
    <path d="M194,31.665C194,31.55 193.923,31.511 193.885,31.431C193.085,31.431 192.032,31.49 191.619,31.49C190.626,31.49 189.419,31.41 188.888,31.41C188.829,31.529 188.808,31.55 188.808,31.648C188.808,31.728 188.823,31.807 188.85,31.882C189.416,31.997 190.235,32.134 190.392,32.406C190.52,32.639 190.581,32.903 190.567,33.168C190.575,33.415 190.535,33.661 190.448,33.892C190.273,34.378 189.903,35.14 189.378,36.214C188.478,38.029 187.913,39.158 187.598,39.614C187.091,38.754 185.962,36.492 185.689,35.908L184.594,33.527C184.543,33.356 184.517,33.178 184.517,32.999C184.508,32.827 184.535,32.654 184.594,32.492C184.769,32.139 185.374,32.1 186.194,32.002C186.229,31.908 186.248,31.808 186.25,31.708C186.25,31.572 186.194,31.608 186.135,31.516L185.785,31.516C184.474,31.516 184.865,31.572 182.621,31.572C181.666,31.572 180.512,31.516 180.359,31.516C180.279,31.652 180.24,31.67 180.24,31.806C180.241,31.89 180.269,31.972 180.32,32.04C181.62,32.355 182.02,32.585 182.152,32.84L185.568,39.54C185.827,40.004 186.037,40.494 186.194,41.002C186.331,41.775 186.383,42.561 186.351,43.345C186.419,43.919 186.181,44.489 185.725,44.845C185.212,44.974 184.689,45.06 184.162,45.1C184.101,45.178 184.066,45.274 184.062,45.373C184.069,45.454 184.089,45.533 184.121,45.607C185.121,45.607 186.153,45.586 186.736,45.586C187.145,45.586 187.771,45.607 188.921,45.624C189.585,45.645 190.092,45.666 190.442,45.666C190.496,45.591 190.53,45.503 190.542,45.411C190.543,45.32 190.515,45.23 190.462,45.156C189.876,45.134 189.299,45.001 188.762,44.764C188.405,44.453 188.216,43.991 188.252,43.519L188.098,40.589C188.091,40.429 188.117,40.27 188.175,40.121C188.229,39.933 188.3,39.751 188.388,39.576L191.395,33.621C191.708,33.099 192.134,32.655 192.643,32.321C193.048,32.138 193.474,32.007 193.912,31.929C193.954,31.85 193.981,31.763 193.989,31.674M178.223,35.695L178.223,31.9C178.223,31.606 178.104,31.529 177.81,31.529C177.226,31.529 174.53,31.606 171.41,31.606C168.99,31.606 167.371,31.568 166.277,31.568L164.833,31.568C164.581,31.568 164.501,31.627 164.501,31.9L164.501,35.432C164.567,35.486 164.65,35.515 164.735,35.512C164.815,35.518 164.895,35.505 164.969,35.474C165.731,33.774 166.119,32.874 167.431,32.212C168.015,32.156 170.064,32.135 170.375,32.135C170.396,32.352 170.417,33.035 170.434,33.852C170.455,35.257 170.455,36.02 170.455,39.338C170.455,42.205 170.434,43.691 170.396,44.002C170.319,44.547 170.417,44.957 168.074,45.054C168.024,45.157 168.004,45.272 168.015,45.386C168.011,45.465 168.019,45.543 168.036,45.62L168.795,45.62C169.519,45.62 170.473,45.543 171.176,45.543C171.742,45.543 172.816,45.602 174.008,45.602L174.553,45.602C174.601,45.512 174.621,45.41 174.612,45.308C174.617,45.211 174.589,45.114 174.532,45.035C173.841,45.085 173.149,44.957 172.522,44.664C172.404,44.185 172.345,43.693 172.347,43.199C172.329,41.091 172.309,40.099 172.309,38.692C172.309,36.877 172.33,35.492 172.33,32.115C172.603,32.115 174.047,32.094 174.63,32.115C175.529,32.302 176.319,32.834 176.83,33.597C177.252,34.245 177.55,34.966 177.708,35.723C177.803,35.754 177.902,35.767 178.002,35.761C178.081,35.759 178.157,35.732 178.219,35.684M161.999,45.324C162,45.23 161.98,45.137 161.94,45.051C161.456,45.018 160.974,44.96 160.496,44.876C160.143,44.445 159.914,43.927 159.832,43.376C159.815,42.439 159.794,40.313 159.794,38.498L159.794,33.539C159.778,33.157 159.903,32.783 160.144,32.487C160.665,32.16 161.267,31.983 161.882,31.976C161.92,31.897 161.941,31.811 161.942,31.724C161.942,31.636 161.906,31.551 161.842,31.49L161.279,31.49C160.457,31.49 159.286,31.59 158.622,31.59C158.213,31.59 157.042,31.531 156.182,31.513L155.752,31.513C155.681,31.576 155.645,31.671 155.658,31.765C155.662,31.851 155.675,31.937 155.696,32.02C156.216,32.014 156.732,32.107 157.217,32.293C157.662,32.727 157.898,33.333 157.864,33.954C157.882,34.321 157.899,35.318 157.92,37.115C157.941,38.091 157.958,39.415 157.958,40.549C157.958,41.115 157.92,42.577 157.899,43.262C157.881,43.665 157.79,44.062 157.63,44.433C157.392,44.633 157.158,44.978 155.735,45.076C155.697,45.169 155.677,45.269 155.676,45.37C155.676,45.527 155.714,45.527 155.714,45.622L156.046,45.622C156.829,45.622 158.039,45.528 159.053,45.528C159.347,45.528 160.633,45.584 161.28,45.584L161.92,45.584C161.971,45.509 161.999,45.42 162.001,45.329M152.358,41.738C152.399,40.252 151.521,38.884 150.152,38.304C149.461,37.967 148.735,37.705 147.988,37.524C147.009,37.267 146.06,36.907 145.156,36.45C144.409,36.008 143.966,35.188 144.006,34.321C144.163,32.954 145.385,31.94 146.758,32.038C147.817,32.034 148.815,32.544 149.433,33.405C149.93,34.092 150.336,34.839 150.643,35.629C150.862,35.721 151.117,35.658 151.269,35.475C151.183,34.892 151.13,34.305 151.112,33.716C151.133,33.205 151.192,32.697 151.29,32.195C151.165,31.998 150.935,31.891 150.703,31.922C150.421,32.123 150.165,32.358 149.941,32.622C149.025,31.818 147.841,31.385 146.623,31.409C146.524,31.401 146.425,31.397 146.325,31.397C144.259,31.397 142.548,33.074 142.507,35.14C142.531,35.911 142.782,36.657 143.227,37.287C143.712,37.933 144.371,38.427 145.127,38.71C145.69,38.944 148.227,39.71 148.578,39.843C150.141,40.443 150.728,40.976 150.728,42.361C150.69,43.101 150.384,43.802 149.868,44.333C149.321,44.95 148.523,45.287 147.7,45.249C146.451,45.258 145.256,44.732 144.42,43.805C143.84,43.003 143.393,42.113 143.095,41.169C143.007,41.14 142.914,41.128 142.822,41.134C142.69,41.134 142.56,41.174 142.451,41.249C142.451,41.504 142.528,42.791 142.528,43.179C142.519,43.765 142.448,44.349 142.315,44.92C142.44,45.151 142.679,45.298 142.941,45.308C143.218,45.032 143.55,44.819 143.916,44.682C144.084,44.697 144.245,44.759 144.381,44.86C145.342,45.512 146.482,45.852 147.643,45.835C150.395,45.835 152.363,44.447 152.363,41.735M135.1,35C135.067,36.32 134.208,37.486 132.957,37.909C132.286,38.024 131.606,38.075 130.926,38.063C130.692,38.063 130.026,38.063 129.734,38.025L129.716,36.308L129.716,32.623C129.716,32.368 129.775,32.231 129.852,32.172C130.301,32.086 130.759,32.048 131.216,32.057C133.052,32.057 133.891,32.232 134.555,33.186C134.923,33.718 135.114,34.353 135.1,35M139.2,45.343C139.199,45.238 139.166,45.135 139.105,45.049C138.662,45.06 138.221,44.974 137.815,44.797C137.694,44.641 137.583,44.477 137.483,44.307C137.253,43.481 136.98,42.667 136.665,41.87C136.334,41.011 135.844,40.223 135.221,39.545C134.785,39.265 134.312,39.049 133.815,38.902C133.504,38.783 133.249,38.689 133.015,38.591C133.279,38.537 133.546,38.497 133.815,38.472C134.563,38.454 135.287,38.202 135.885,37.752C136.692,37.168 137.171,36.231 137.172,35.235C137.188,33.663 136.207,32.243 134.732,31.7C133.963,31.533 133.176,31.462 132.389,31.487C130.927,31.487 129.833,31.623 128.857,31.623C128.567,31.623 127.609,31.585 126.927,31.585C126.633,31.585 125.892,31.547 125.773,31.547C125.717,31.683 125.673,31.722 125.673,31.799C125.676,31.891 125.691,31.983 125.715,32.072C126.044,32.114 126.649,32.191 126.963,32.25C127.335,32.51 127.62,32.877 127.781,33.302C127.881,33.928 127.9,35.683 127.9,38.435C127.9,40.424 127.918,42.924 127.82,43.666C127.817,44.216 127.508,44.721 127.02,44.974C126.652,45.038 126.281,45.084 125.908,45.11C125.849,45.19 125.815,45.284 125.808,45.383C125.821,45.465 125.849,45.544 125.889,45.617C126.162,45.617 128.406,45.558 129.029,45.558C130.281,45.558 130.592,45.617 131.704,45.617C131.747,45.553 131.775,45.48 131.784,45.404C131.784,45.301 131.756,45.199 131.704,45.11C131.316,45.072 130.826,44.953 130.61,44.918C130.08,44.664 129.75,44.117 129.774,43.53L129.753,38.652C129.91,38.631 130.473,38.631 130.631,38.631C131.164,38.605 131.697,38.698 132.19,38.904C132.967,39.235 133.633,39.784 134.106,40.484C134.77,41.816 135.187,43.258 135.337,44.739C135.393,45.148 135.55,45.501 135.921,45.539C136.297,45.587 136.675,45.607 137.054,45.598L139.082,45.598C139.156,45.534 139.198,45.441 139.197,45.343M122.823,42.378C122.827,42.189 122.821,42 122.805,41.812C122.717,41.758 122.613,41.737 122.511,41.753C122.424,41.747 122.337,41.76 122.256,41.791C121.967,42.996 121.252,44.056 120.245,44.777C119.717,44.977 119.15,45.051 118.588,44.994L116.4,44.994C115.968,44.991 115.537,44.958 115.11,44.894C114.82,44.835 114.51,44.366 114.372,44.055C114.178,43.635 114.103,43.169 114.155,42.709L114.155,38.263L114.781,38.263C115.347,38.231 115.912,38.324 116.438,38.536C116.863,38.706 117.229,38.998 117.49,39.375C117.65,39.901 117.742,40.445 117.766,40.994C117.857,41.056 117.967,41.084 118.077,41.074C118.189,41.079 118.3,41.044 118.388,40.974C118.388,40.446 118.273,39.023 118.273,38.24C118.273,37.265 118.409,36.076 118.465,35.373C118.373,35.314 118.263,35.287 118.154,35.296C118.047,35.286 117.94,35.305 117.843,35.352C117.784,35.625 117.626,36.446 117.591,36.506C117.218,37.006 116.691,37.37 116.091,37.541C115.566,37.659 115.029,37.711 114.491,37.695L114.18,37.695L114.18,35.784C114.18,33.91 114.218,33.151 114.236,32.798C114.257,32.564 114.295,32.312 114.316,32.134C114.491,32.116 115.057,32.096 115.956,32.096C117.085,32.096 117.925,32.117 118.103,32.117C118.549,32.117 118.984,32.252 119.351,32.505C120.164,33.116 120.771,33.962 121.089,34.928C121.164,34.956 121.243,34.968 121.323,34.963C121.438,34.963 121.459,34.928 121.613,34.848C121.613,33.659 121.536,32.313 121.498,31.824C121.477,31.624 121.439,31.569 121.047,31.569C120.893,31.569 120.147,31.531 119.372,31.531C118.257,31.531 117.809,31.552 116.11,31.552C115.194,31.552 113.575,31.57 112.774,31.57C111.603,31.57 111.347,31.532 110.84,31.532L110.176,31.532C110.118,31.597 110.083,31.679 110.076,31.766C110.079,31.865 110.114,31.961 110.176,32.039C110.656,32.076 111.133,32.149 111.603,32.256C111.876,32.49 112.128,32.55 112.303,33.483C112.341,33.896 112.362,35.221 112.362,36.119L112.362,40.14C112.362,40.958 112.341,42.308 112.32,42.794C112.284,43.444 112.139,44.084 111.89,44.686C111.327,44.886 110.733,44.986 110.135,44.98C110.075,45.075 110.041,45.183 110.035,45.295C110.038,45.393 110.073,45.488 110.135,45.564L110.778,45.564C111.404,45.564 112.967,45.508 113.491,45.508C113.981,45.508 114.641,45.546 115.774,45.546C116.4,45.546 118.232,45.665 122.174,45.665C122.351,45.679 122.529,45.665 122.702,45.623C122.757,45.529 122.784,45.421 122.779,45.312C122.817,44.924 122.817,43.966 122.817,42.385M108.381,31.725C108.381,31.648 108.36,31.525 108.281,31.512L107.617,31.512C107.149,31.512 106.407,31.55 106.075,31.55C104.494,31.55 103.928,31.45 103.694,31.45L103.344,31.45C103.302,31.55 103.244,31.604 103.244,31.702C103.244,31.779 103.286,31.838 103.286,31.919C103.743,31.971 104.194,32.068 104.632,32.209C104.942,32.544 105.117,32.983 105.122,33.44C105.04,34.049 104.881,34.646 104.65,35.216L101.51,42.943L97.65,33.167C97.686,32.724 97.922,32.321 98.29,32.073C98.709,31.991 99.133,31.939 99.559,31.919C99.602,31.834 99.628,31.741 99.636,31.646C99.636,31.566 99.618,31.446 99.536,31.429L99.047,31.429C98.447,31.429 97.53,31.509 96.495,31.509C96.047,31.509 95.17,31.467 94.31,31.467L93.548,31.467C93.452,31.608 93.445,31.792 93.53,31.939C94.104,32.085 94.655,32.307 95.17,32.6C95.77,33.753 96.304,34.939 96.77,36.152L98.385,40.052C99.731,43.293 100.532,45.461 100.63,45.832C100.73,45.891 100.63,45.947 100.805,45.947C100.98,45.947 100.962,45.909 101.005,45.811L106.04,33.711C106.208,33.303 106.445,32.927 106.74,32.599C107.193,32.252 107.732,32.036 108.299,31.973C108.339,31.894 108.366,31.809 108.38,31.721M91.285,45.321C91.288,45.227 91.267,45.133 91.226,45.048C90.742,45.015 90.26,44.957 89.782,44.873C89.431,44.441 89.201,43.923 89.118,43.373C89.1,42.436 89.08,40.31 89.08,38.495L89.08,33.539C89.061,33.157 89.188,32.781 89.433,32.487C89.953,32.16 90.553,31.983 91.167,31.976C91.206,31.898 91.227,31.811 91.226,31.724C91.226,31.636 91.19,31.551 91.126,31.49L90.559,31.49C89.741,31.49 88.57,31.59 87.905,31.59C87.496,31.59 86.325,31.531 85.468,31.513L85.038,31.513C84.963,31.574 84.925,31.669 84.938,31.765C84.942,31.851 84.955,31.937 84.976,32.02C85.496,32.015 86.012,32.107 86.497,32.293C86.942,32.727 87.178,33.333 87.144,33.954C87.162,34.321 87.182,35.318 87.2,37.115C87.221,38.091 87.242,39.415 87.242,40.549C87.242,41.115 87.2,42.577 87.183,43.262C87.165,43.666 87.071,44.063 86.907,44.433C86.676,44.633 86.442,44.978 85.015,45.076C84.977,45.169 84.957,45.269 84.956,45.37C84.956,45.527 84.998,45.527 84.998,45.622L85.327,45.622C86.11,45.622 87.32,45.528 88.334,45.528C88.628,45.528 89.914,45.584 90.558,45.584L91.205,45.584C91.255,45.508 91.282,45.42 91.282,45.329M82.46,31.689C82.462,31.618 82.442,31.548 82.401,31.489L81.953,31.489C80.978,31.489 80.547,31.527 78.792,31.527C78.184,31.527 77.292,31.489 77.075,31.489L76.57,31.489C76.514,31.527 76.493,31.664 76.493,31.744C76.489,31.827 76.526,31.907 76.593,31.957C77.284,32.061 77.959,32.251 78.603,32.523C78.97,33.122 79.166,33.81 79.169,34.513C79.187,34.807 79.207,35.1 79.207,35.901L79.207,41.7C79.21,41.98 79.197,42.26 79.169,42.539C78.837,42.168 78.269,41.448 77.508,40.55L70.053,31.84C69.968,31.742 69.869,31.657 69.759,31.588C69.602,31.588 69.409,31.567 69.252,31.567C68.004,31.567 66.91,31.511 66.577,31.511C66.541,31.569 66.522,31.635 66.521,31.703C66.525,31.789 66.537,31.874 66.556,31.958C67.095,32.016 67.612,32.203 68.063,32.503C68.43,32.845 68.751,33.233 69.018,33.657C69.083,33.857 69.111,34.068 69.098,34.279C69.098,35.297 69.039,37.146 69.039,38.517L69.039,42.671C69.043,43.168 69.003,43.663 68.92,44.153C68.347,44.675 67.635,45.022 66.871,45.153C66.829,45.225 66.803,45.304 66.794,45.387C66.794,45.446 66.812,45.562 66.85,45.587L67.221,45.587C67.613,45.587 68.511,45.531 69.099,45.531C69.956,45.531 70.344,45.587 71.144,45.587L72.319,45.587C72.396,45.566 72.414,45.412 72.414,45.332C72.414,45.261 72.394,45.191 72.355,45.132C71.455,45.026 70.624,44.598 70.016,43.926C69.843,43.117 69.757,42.291 69.761,41.464C69.761,40.842 69.74,39.824 69.74,38.674C69.74,37.132 69.761,35.006 69.782,34.321C69.897,34.457 70.076,34.674 70.209,34.828L79.461,45.664C79.561,45.759 79.597,45.779 79.699,45.779C79.801,45.779 79.734,45.779 79.814,45.741C79.89,45.455 79.924,45.159 79.914,44.863C79.914,44.297 79.893,43.709 79.893,43.415L79.893,35.12C79.893,32.683 81.047,31.998 82.393,31.942C82.443,31.866 82.47,31.778 82.47,31.687M64.397,31.781C64.394,31.688 64.358,31.599 64.297,31.529L63.734,31.529C63.126,31.529 62.307,31.567 61.605,31.567C60.825,31.567 59.948,31.529 59.378,31.529L58.678,31.529C58.628,31.604 58.6,31.691 58.598,31.781C58.601,31.869 58.621,31.956 58.657,32.036C58.737,32.036 60.157,32.057 60.412,32.407C60.747,32.841 61.005,33.33 61.174,33.851C61.286,34.562 61.338,35.281 61.329,36C61.329,37.661 61.329,38.773 61.308,39.357C61.3,40.235 61.181,41.109 60.955,41.957C60.469,43.613 58.847,44.69 57.133,44.495C56.344,44.499 55.563,44.33 54.846,44C53.845,43.547 53.134,42.622 52.954,41.538L52.854,35.685L52.837,33.304C52.837,32.856 53.4,32.444 53.596,32.21C54.09,32.105 54.592,32.041 55.096,32.018C55.152,31.937 55.186,31.843 55.196,31.745C55.191,31.644 55.141,31.551 55.06,31.49L54.319,31.511C53.595,31.529 52.641,31.549 52.036,31.549C51.099,31.549 50.375,31.528 49.791,31.528L48.973,31.528C48.9,31.599 48.863,31.7 48.873,31.801C48.866,31.887 48.896,31.972 48.954,32.035C49.576,32.115 49.985,32.171 50.262,32.235C50.581,32.435 50.822,32.739 50.944,33.095C50.965,33.347 51.003,33.973 51.003,35.195L51.003,39.88C50.974,40.756 51.041,41.633 51.203,42.495C51.43,43.488 52.042,44.351 52.903,44.895C53.976,45.552 55.219,45.878 56.476,45.832C57.645,45.861 58.802,45.585 59.833,45.032C60.814,44.476 61.515,43.531 61.763,42.432C61.97,41.675 62.076,40.895 62.078,40.11L62.078,36.368C62.078,35.668 62.116,34.788 62.116,34.438C62.1,33.681 62.304,32.935 62.703,32.291C63.232,32.143 63.774,32.052 64.322,32.018C64.368,31.947 64.395,31.865 64.399,31.78" style="fill-rule:nonzero;"/>
    <path d="M16.65,12.117C16.533,12.119 16.426,12.188 16.377,12.295L15.8,13.573C15.787,13.583 15.771,13.589 15.755,13.592C15.737,13.592 15.717,13.573 15.703,13.533C15.689,13.493 15.619,13.309 15.469,12.961L15.284,12.543C15.218,12.389 15.165,12.288 15.148,12.256C15.098,12.17 15.006,12.117 14.907,12.116C14.899,12.105 14.895,12.092 14.896,12.078C14.895,12.065 14.898,12.053 14.903,12.041L15,12.041C15.108,12.041 15.2,12.046 15.28,12.046C15.36,12.046 15.532,12.037 15.637,12.037L15.7,12.037C15.71,12.037 15.714,12.062 15.714,12.07C15.715,12.084 15.712,12.099 15.707,12.112C15.637,12.119 15.48,12.112 15.48,12.212C15.48,12.241 15.485,12.27 15.494,12.298L15.872,13.198L16.187,12.455C16.216,12.392 16.23,12.324 16.229,12.255C16.229,12.171 16.17,12.134 16.012,12.115C16.007,12.104 16.004,12.092 16.002,12.08C16.003,12.065 16.006,12.05 16.012,12.036L16.057,12.036C16.127,12.036 16.197,12.045 16.357,12.045C16.385,12.045 16.493,12.04 16.546,12.04L16.654,12.04C16.661,12.05 16.666,12.061 16.668,12.073C16.666,12.089 16.66,12.104 16.65,12.117Z" style="fill-rule:nonzero;"/>
    <path d="M18.248,13.549C17.79,13.549 17.542,13.537 17.479,13.537L17.262,13.537C17.199,13.537 17.052,13.547 16.891,13.547L16.8,13.547C16.794,13.537 16.792,13.525 16.793,13.514C16.791,13.499 16.791,13.485 16.793,13.47C16.873,13.471 16.952,13.454 17.024,13.421C17.061,13.35 17.078,13.27 17.073,13.19L17.073,12.3C17.073,12.134 16.989,12.134 16.818,12.115C16.814,12.102 16.812,12.089 16.811,12.075C16.811,12.066 16.811,12.042 16.825,12.037L17.402,12.037C17.664,12.037 17.92,12.042 17.975,12.042L18.132,12.042C18.167,12.042 18.181,12.042 18.181,12.077L18.202,12.42C18.181,12.43 18.177,12.434 18.16,12.434C18.148,12.436 18.137,12.436 18.125,12.434C18.073,12.329 17.994,12.239 17.898,12.172C17.858,12.147 17.812,12.134 17.765,12.134L17.565,12.134C17.465,12.134 17.408,12.134 17.394,12.139C17.38,12.144 17.38,12.139 17.373,12.197C17.373,12.234 17.366,12.297 17.366,12.497L17.366,12.697L17.418,12.697C17.475,12.698 17.533,12.692 17.589,12.68C17.651,12.663 17.706,12.625 17.743,12.572C17.759,12.531 17.771,12.489 17.778,12.446C17.793,12.438 17.81,12.435 17.827,12.436C17.841,12.435 17.854,12.44 17.865,12.448C17.865,12.509 17.851,12.625 17.851,12.771C17.851,12.844 17.858,13.005 17.858,13.071C17.846,13.081 17.831,13.085 17.816,13.083C17.802,13.083 17.788,13.081 17.774,13.078C17.76,12.949 17.739,12.861 17.631,12.816C17.578,12.794 17.521,12.783 17.463,12.784C17.43,12.785 17.396,12.787 17.363,12.791L17.363,13.191C17.359,13.251 17.366,13.311 17.384,13.369C17.395,13.395 17.429,13.448 17.475,13.453C17.521,13.461 17.568,13.464 17.615,13.463L17.832,13.463C17.89,13.463 17.947,13.451 18,13.428C18.105,13.342 18.188,13.231 18.241,13.105C18.255,13.099 18.271,13.095 18.286,13.096C18.302,13.097 18.317,13.1 18.331,13.107L18.331,13.507C18.329,13.544 18.3,13.549 18.248,13.549Z" style="fill-rule:nonzero;"/>
    <path d="M20.067,12.514C20.057,12.514 20.043,12.514 20.025,12.509C19.997,12.43 19.96,12.355 19.913,12.285C19.847,12.196 19.744,12.141 19.633,12.138L19.486,12.138L19.486,13.262C19.486,13.439 19.566,13.439 19.748,13.462C19.756,13.475 19.761,13.49 19.762,13.506C19.762,13.519 19.759,13.532 19.752,13.543L19.685,13.543C19.585,13.543 19.37,13.536 19.304,13.536C19.259,13.536 19.028,13.546 18.919,13.546C18.909,13.535 18.904,13.521 18.905,13.506C18.906,13.492 18.91,13.478 18.916,13.466C19.157,13.448 19.182,13.403 19.189,13.326C19.196,13.277 19.196,13.078 19.196,12.875L19.196,12.32C19.197,12.259 19.193,12.197 19.182,12.137C19.104,12.134 19.025,12.14 18.948,12.153C18.809,12.221 18.702,12.34 18.648,12.485C18.636,12.489 18.623,12.491 18.61,12.49C18.596,12.491 18.583,12.485 18.575,12.474L18.575,12.086C18.575,12.051 18.575,12.042 18.62,12.042L19.333,12.042C19.697,12.042 19.966,12.033 20.033,12.033C20.068,12.033 20.092,12.033 20.106,12.045C20.108,12.064 20.108,12.082 20.106,12.101L20.106,12.489C20.099,12.504 20.084,12.514 20.067,12.514Z" style="fill-rule:nonzero;"/>
    <path d="M16.577,14.881C16.563,14.881 16.552,14.881 16.532,14.876C16.507,14.796 16.47,14.72 16.42,14.652C16.355,14.562 16.251,14.508 16.14,14.505L15.993,14.505L15.993,15.629C15.993,15.806 16.077,15.806 16.259,15.829C16.267,15.842 16.27,15.858 16.269,15.873C16.27,15.886 16.268,15.899 16.262,15.91L16.2,15.91C16.092,15.91 15.882,15.903 15.819,15.903C15.774,15.903 15.543,15.914 15.431,15.914C15.423,15.902 15.42,15.888 15.421,15.874C15.422,15.86 15.424,15.847 15.428,15.834C15.669,15.816 15.694,15.771 15.704,15.694L15.704,14.691C15.707,14.629 15.703,14.568 15.694,14.507C15.614,14.504 15.535,14.51 15.456,14.523C15.317,14.591 15.209,14.71 15.156,14.855C15.142,14.859 15.128,14.861 15.114,14.86C15.101,14.86 15.088,14.854 15.079,14.844L15.079,14.456C15.079,14.421 15.086,14.412 15.124,14.412L15.84,14.412C16.2,14.412 16.473,14.403 16.54,14.403C16.578,14.403 16.603,14.403 16.614,14.415C16.625,14.427 16.614,14.45 16.614,14.471L16.614,14.859C16.606,14.872 16.592,14.88 16.577,14.881Z" style="fill-rule:nonzero;"/>
    <path d="M18.3,15.916C17.845,15.916 17.594,15.904 17.534,15.904L17.314,15.904C17.255,15.904 17.104,15.915 16.947,15.915L16.856,15.915C16.85,15.905 16.846,15.894 16.846,15.882C16.845,15.867 16.847,15.852 16.853,15.838C16.931,15.84 17.009,15.823 17.08,15.789C17.108,15.759 17.122,15.695 17.129,15.558C17.129,15.488 17.136,15.411 17.136,15.332L17.136,14.671C17.136,14.505 17.055,14.505 16.884,14.486C16.878,14.473 16.875,14.46 16.874,14.446C16.874,14.437 16.881,14.413 16.891,14.408L17.465,14.408C17.731,14.408 17.982,14.413 18.042,14.413L18.196,14.413C18.234,14.413 18.248,14.413 18.248,14.448L18.265,14.791C18.253,14.8 18.238,14.805 18.223,14.805C18.211,14.807 18.2,14.807 18.188,14.805C18.138,14.698 18.059,14.608 17.961,14.543C17.922,14.518 17.878,14.505 17.832,14.505L17.626,14.505C17.526,14.505 17.469,14.505 17.458,14.51C17.447,14.515 17.44,14.51 17.433,14.568L17.433,15.068L17.482,15.068C17.54,15.069 17.597,15.063 17.653,15.05C17.716,15.033 17.771,14.995 17.81,14.942C17.825,14.901 17.835,14.859 17.841,14.816C17.856,14.809 17.873,14.805 17.89,14.805C17.905,14.804 17.92,14.808 17.932,14.817C17.932,14.878 17.915,14.994 17.915,15.14C17.915,15.213 17.925,15.374 17.925,15.44C17.913,15.449 17.898,15.454 17.883,15.452C17.868,15.452 17.853,15.45 17.838,15.447C17.824,15.318 17.806,15.23 17.695,15.185C17.643,15.163 17.587,15.152 17.531,15.153C17.498,15.154 17.464,15.156 17.431,15.16L17.431,15.56C17.428,15.62 17.434,15.68 17.448,15.738C17.462,15.764 17.497,15.817 17.539,15.822C17.585,15.83 17.632,15.834 17.679,15.833L17.899,15.833C17.954,15.836 18.009,15.827 18.06,15.808C18.168,15.723 18.252,15.612 18.305,15.485C18.319,15.478 18.334,15.475 18.35,15.476C18.365,15.476 18.379,15.48 18.392,15.486L18.392,15.886C18.385,15.911 18.36,15.916 18.3,15.916Z" style="fill-rule:nonzero;"/>
    <path d="M19.367,15.949C19.245,15.944 19.126,15.913 19.017,15.858C18.999,15.851 18.98,15.847 18.961,15.846C18.92,15.857 18.882,15.877 18.849,15.904C18.814,15.906 18.78,15.888 18.761,15.859C18.761,15.827 18.789,15.733 18.789,15.674C18.789,15.639 18.779,15.474 18.775,15.429C18.791,15.409 18.815,15.397 18.841,15.398C18.849,15.397 18.858,15.397 18.866,15.398C18.898,15.459 18.961,15.624 19.006,15.69C19.091,15.787 19.213,15.845 19.342,15.849C19.43,15.858 19.518,15.832 19.587,15.776C19.644,15.732 19.675,15.663 19.671,15.592C19.674,15.543 19.659,15.495 19.629,15.456C19.588,15.405 19.533,15.366 19.472,15.344C19.406,15.312 19.172,15.255 19.087,15.209C19.007,15.175 18.935,15.125 18.877,15.06C18.819,14.98 18.788,14.884 18.789,14.785C18.792,14.551 18.985,14.361 19.219,14.361C19.231,14.361 19.242,14.361 19.254,14.362C19.382,14.353 19.509,14.388 19.614,14.462C19.641,14.432 19.67,14.403 19.701,14.376C19.733,14.373 19.764,14.388 19.781,14.416C19.769,14.484 19.761,14.553 19.757,14.622C19.757,14.662 19.781,14.822 19.781,14.846C19.763,14.857 19.743,14.864 19.722,14.867C19.712,14.866 19.703,14.864 19.694,14.86C19.652,14.787 19.614,14.66 19.568,14.598C19.497,14.507 19.383,14.458 19.268,14.469C19.261,14.468 19.254,14.468 19.247,14.468C19.118,14.468 19.008,14.57 19,14.7C19.009,14.806 19.083,14.895 19.185,14.924C19.248,14.949 19.325,14.978 19.412,15.005C19.494,15.031 19.575,15.062 19.653,15.098C19.811,15.166 19.91,15.326 19.901,15.498C19.882,15.752 19.668,15.951 19.413,15.951C19.398,15.951 19.382,15.95 19.367,15.949Z" style="fill-rule:nonzero;"/>
    <path d="M17.186,18.287C16.728,18.287 16.48,18.275 16.417,18.275L16.2,18.275C16.137,18.275 15.99,18.286 15.829,18.286L15.738,18.286C15.732,18.276 15.73,18.264 15.731,18.253C15.729,18.238 15.729,18.224 15.731,18.209C15.811,18.21 15.89,18.193 15.962,18.16C15.999,18.089 16.016,18.009 16.011,17.929L16.011,17.042C16.011,16.876 15.927,16.876 15.756,16.857C15.752,16.844 15.75,16.831 15.749,16.817C15.749,16.808 15.749,16.784 15.763,16.779L16.34,16.779C16.602,16.779 16.857,16.784 16.913,16.784L17.07,16.784C17.105,16.784 17.119,16.784 17.119,16.819L17.14,17.162C17.119,17.173 17.116,17.176 17.098,17.176C17.086,17.178 17.075,17.178 17.063,17.176C17.011,17.071 16.932,16.981 16.836,16.914C16.796,16.889 16.75,16.876 16.703,16.876L16.503,16.876C16.403,16.876 16.346,16.876 16.332,16.881C16.318,16.886 16.318,16.881 16.311,16.939C16.311,16.976 16.304,17.039 16.304,17.239L16.304,17.439L16.356,17.439C16.413,17.44 16.471,17.434 16.527,17.422C16.589,17.405 16.644,17.367 16.681,17.314C16.697,17.273 16.709,17.231 16.716,17.188C16.731,17.18 16.748,17.176 16.765,17.177C16.779,17.177 16.792,17.181 16.803,17.189C16.803,17.25 16.789,17.366 16.789,17.512C16.789,17.586 16.796,17.746 16.796,17.812C16.784,17.822 16.769,17.826 16.754,17.824C16.74,17.824 16.726,17.822 16.712,17.819C16.698,17.69 16.677,17.602 16.569,17.557C16.516,17.535 16.459,17.524 16.401,17.526C16.368,17.527 16.334,17.529 16.301,17.533L16.301,17.933C16.297,17.993 16.304,18.053 16.322,18.111C16.333,18.137 16.367,18.19 16.413,18.195C16.459,18.203 16.506,18.206 16.553,18.205L16.77,18.205C16.826,18.207 16.881,18.199 16.934,18.18C17.04,18.094 17.122,17.983 17.175,17.857C17.189,17.851 17.205,17.847 17.22,17.848C17.236,17.849 17.251,17.852 17.265,17.859L17.265,18.259C17.266,18.281 17.241,18.287 17.186,18.287Z" style="fill-rule:nonzero;"/>
    <path d="M19.388,16.85C19.234,16.855 19.101,16.939 19.101,17.184L19.101,17.962C19.101,17.992 19.115,18.212 19.115,18.296C19.096,18.309 19.075,18.318 19.052,18.321C19.037,18.316 19.024,18.308 19.014,18.296L17.948,17.149L17.959,17.383L17.959,17.806C17.959,17.839 17.966,17.918 17.973,17.977C17.97,18.04 17.999,18.1 18.05,18.138C18.109,18.178 18.179,18.201 18.25,18.204C18.256,18.215 18.26,18.227 18.26,18.239C18.259,18.253 18.254,18.266 18.246,18.277L17.855,18.277C17.789,18.277 17.694,18.284 17.628,18.284L17.579,18.284C17.577,18.272 17.577,18.261 17.579,18.249C17.579,18.236 17.581,18.223 17.586,18.211C17.676,18.208 17.761,18.172 17.827,18.111C17.847,18.052 17.855,17.991 17.852,17.929L17.852,17.387C17.852,17.3 17.852,17.256 17.845,17.17C17.847,17.109 17.828,17.049 17.79,17C17.768,16.971 17.743,16.945 17.716,16.921C17.662,16.889 17.605,16.864 17.545,16.846C17.54,16.835 17.536,16.823 17.535,16.811C17.535,16.798 17.539,16.785 17.545,16.773L17.583,16.773C17.615,16.773 17.783,16.782 17.905,16.782L17.978,16.782C17.995,16.789 18.01,16.799 18.023,16.812L18.813,17.676C18.872,17.742 18.949,17.83 18.991,17.886L18.991,17.26C18.992,17.202 18.989,17.145 18.984,17.087C18.98,17.03 18.965,16.975 18.939,16.924C18.915,16.886 18.768,16.865 18.691,16.849C18.686,16.835 18.683,16.819 18.684,16.804C18.683,16.793 18.683,16.782 18.684,16.771L18.729,16.771C18.802,16.771 18.921,16.782 18.995,16.782C19.177,16.782 19.233,16.777 19.324,16.777L19.383,16.777C19.388,16.789 19.391,16.801 19.39,16.814C19.392,16.826 19.391,16.838 19.388,16.85Z" style="fill-rule:nonzero;"/>
    <path d="M24.371,12.112C24.221,12.117 24.084,12.201 24.084,12.446L24.084,13.224C24.084,13.254 24.094,13.474 24.094,13.558C24.077,13.571 24.056,13.58 24.035,13.583C24.025,13.583 24.014,13.574 23.993,13.558L22.927,12.411L22.941,12.645L22.941,13.068C22.941,13.101 22.948,13.18 22.951,13.239C22.952,13.301 22.98,13.36 23.028,13.4C23.088,13.439 23.157,13.462 23.228,13.466C23.234,13.477 23.238,13.489 23.238,13.501C23.237,13.514 23.233,13.527 23.228,13.539L22.833,13.539C22.767,13.539 22.676,13.546 22.609,13.546L22.56,13.546C22.556,13.535 22.554,13.523 22.553,13.511C22.553,13.498 22.557,13.484 22.564,13.473C22.653,13.469 22.737,13.434 22.802,13.373C22.823,13.315 22.832,13.253 22.827,13.191L22.827,12.432C22.827,12.373 22.809,12.316 22.775,12.268C22.751,12.24 22.726,12.213 22.698,12.189C22.645,12.157 22.587,12.131 22.527,12.114C22.524,12.102 22.522,12.091 22.52,12.079C22.521,12.066 22.523,12.053 22.527,12.041L22.569,12.041C22.597,12.041 22.761,12.05 22.887,12.05L22.96,12.05C22.977,12.058 22.994,12.068 23.009,12.08L23.799,12.944C23.858,13.01 23.935,13.098 23.977,13.154L23.977,12.532C23.977,12.474 23.973,12.416 23.966,12.359C23.964,12.302 23.948,12.246 23.921,12.196C23.897,12.158 23.75,12.137 23.676,12.121C23.67,12.107 23.666,12.092 23.666,12.076C23.665,12.065 23.668,12.053 23.673,12.043L23.718,12.043C23.791,12.043 23.91,12.053 23.984,12.053C24.162,12.053 24.222,12.048 24.313,12.048L24.369,12.048C24.375,12.059 24.379,12.072 24.38,12.085C24.378,12.094 24.375,12.104 24.371,12.112Z" style="fill-rule:nonzero;"/>
    <path d="M25.941,13.358C25.8,13.503 25.605,13.585 25.403,13.585C25.205,13.585 25.016,13.507 24.875,13.369C24.723,13.217 24.64,13.009 24.648,12.794C24.642,12.58 24.724,12.373 24.875,12.222C25.016,12.081 25.207,12.001 25.406,12C25.547,12.001 25.685,12.04 25.806,12.112C26.037,12.256 26.178,12.51 26.177,12.782C26.175,12.997 26.091,13.203 25.941,13.358ZM25.696,12.258C25.63,12.157 25.517,12.097 25.396,12.099C25.281,12.098 25.174,12.159 25.116,12.258C25.013,12.416 24.963,12.603 24.976,12.791C24.966,12.977 25.012,13.162 25.109,13.321C25.171,13.427 25.286,13.491 25.409,13.487C25.55,13.492 25.68,13.41 25.738,13.281C25.812,13.131 25.847,12.964 25.838,12.797C25.853,12.606 25.804,12.416 25.7,12.255L25.696,12.258Z" style="fill-rule:nonzero;"/>
    <path d="M28.088,12.117C27.972,12.121 27.868,12.19 27.819,12.295L27.246,13.573C27.233,13.583 27.217,13.589 27.201,13.592C27.183,13.592 27.159,13.573 27.149,13.533C27.139,13.493 27.065,13.309 26.911,12.961L26.729,12.543C26.663,12.389 26.61,12.288 26.593,12.256C26.543,12.171 26.451,12.118 26.352,12.116C26.342,12.106 26.337,12.092 26.338,12.078C26.337,12.065 26.341,12.052 26.349,12.041L26.443,12.041C26.543,12.041 26.643,12.046 26.719,12.046C26.795,12.046 26.971,12.037 27.079,12.037L27.138,12.037C27.152,12.037 27.155,12.062 27.155,12.07C27.156,12.084 27.153,12.099 27.148,12.112C27.075,12.119 26.921,12.112 26.921,12.212C26.919,12.241 26.924,12.271 26.935,12.298L27.309,13.198L27.627,12.455C27.653,12.392 27.666,12.324 27.665,12.255C27.665,12.171 27.606,12.134 27.448,12.115C27.444,12.104 27.442,12.092 27.441,12.08C27.441,12.065 27.443,12.05 27.448,12.036L27.493,12.036C27.563,12.036 27.633,12.045 27.793,12.045C27.818,12.045 27.929,12.04 27.982,12.04L28.09,12.04C28.106,12.062 28.106,12.093 28.09,12.115L28.088,12.117Z" style="fill-rule:nonzero;"/>
    <path d="M23.878,14.881C23.864,14.881 23.854,14.881 23.833,14.876C23.808,14.796 23.77,14.72 23.721,14.652C23.656,14.562 23.552,14.508 23.441,14.505L23.294,14.505L23.294,15.629C23.294,15.806 23.378,15.806 23.56,15.829C23.568,15.842 23.572,15.858 23.571,15.873C23.572,15.886 23.57,15.899 23.564,15.91L23.5,15.91C23.392,15.91 23.182,15.903 23.119,15.903C23.074,15.903 22.843,15.914 22.731,15.914C22.723,15.902 22.719,15.888 22.72,15.874C22.721,15.86 22.723,15.847 22.727,15.834C22.968,15.816 22.993,15.771 23.003,15.694L23.003,14.691C23.005,14.629 23.002,14.568 22.992,14.507C22.912,14.504 22.833,14.51 22.754,14.523C22.615,14.591 22.507,14.71 22.454,14.855C22.44,14.859 22.426,14.861 22.412,14.86C22.399,14.86 22.386,14.854 22.377,14.844L22.377,14.456C22.377,14.421 22.384,14.412 22.422,14.412L23.138,14.412C23.498,14.412 23.771,14.403 23.838,14.403C23.876,14.403 23.901,14.403 23.911,14.415C23.921,14.427 23.911,14.45 23.911,14.471L23.911,14.859C23.904,14.871 23.892,14.879 23.878,14.881Z" style="fill-rule:nonzero;"/>
    <path d="M25.689,15.914L25.57,15.914C25.493,15.914 25.406,15.904 25.315,15.904C25.172,15.904 24.99,15.914 24.915,15.914C24.907,15.903 24.903,15.89 24.904,15.876C24.905,15.864 24.907,15.852 24.911,15.841C25.058,15.834 25.117,15.809 25.117,15.75C25.115,15.681 25.1,15.613 25.072,15.55C25.027,15.44 25.002,15.389 24.991,15.361C24.984,15.35 24.981,15.345 24.949,15.345L24.474,15.345C24.422,15.435 24.384,15.532 24.362,15.633C24.354,15.662 24.351,15.691 24.351,15.721C24.351,15.77 24.396,15.821 24.564,15.829C24.571,15.842 24.575,15.856 24.574,15.871C24.576,15.883 24.576,15.894 24.574,15.906L24.532,15.906C24.42,15.906 24.389,15.899 24.27,15.899C24.193,15.899 24.008,15.906 23.945,15.906C23.941,15.896 23.939,15.885 23.938,15.874C23.938,15.861 23.94,15.848 23.945,15.836C24.029,15.829 24.107,15.789 24.162,15.726C24.237,15.601 24.301,15.469 24.354,15.333C24.438,15.133 24.539,14.877 24.585,14.77C24.648,14.639 24.669,14.595 24.685,14.55C24.717,14.484 24.751,14.417 24.765,14.393C24.781,14.374 24.804,14.363 24.828,14.363C24.852,14.363 24.875,14.374 24.891,14.393C24.905,14.417 24.917,14.442 24.926,14.468C25.013,14.676 25.083,14.861 25.192,15.12C25.248,15.251 25.276,15.333 25.335,15.47C25.377,15.556 25.401,15.62 25.443,15.699C25.499,15.813 25.59,15.814 25.681,15.837C25.681,15.847 25.695,15.858 25.695,15.872C25.695,15.886 25.7,15.9 25.689,15.914ZM24.734,14.714C24.702,14.772 24.647,14.903 24.626,14.957C24.545,15.157 24.518,15.219 24.504,15.247L24.955,15.247C24.916,15.161 24.8,14.883 24.735,14.717L24.734,14.714Z" style="fill-rule:nonzero;"/>
    <path d="M28.025,15.914L27.413,15.907L27.245,15.907C27.239,15.895 27.235,15.882 27.234,15.869C27.233,15.855 27.238,15.841 27.248,15.831C27.298,15.831 27.349,15.827 27.398,15.817C27.461,15.789 27.486,15.728 27.486,15.637L27.486,14.549L27.164,15.249C27.129,15.326 27.087,15.41 27.052,15.494C27.001,15.606 26.957,15.72 26.919,15.837C26.911,15.857 26.891,15.868 26.87,15.865C26.849,15.865 26.835,15.858 26.825,15.823C26.783,15.732 26.755,15.673 26.741,15.634L26.241,14.526L26.23,14.526L26.23,14.809L26.241,15.517C26.241,15.732 26.353,15.834 26.524,15.834C26.531,15.845 26.535,15.858 26.538,15.871C26.537,15.884 26.533,15.897 26.527,15.908L26.45,15.908C26.418,15.908 26.317,15.898 26.156,15.898L25.843,15.898C25.839,15.886 25.837,15.874 25.836,15.861C25.837,15.85 25.84,15.839 25.843,15.828C25.92,15.813 25.994,15.787 26.063,15.751C26.095,15.721 26.122,15.657 26.122,15.508L26.122,14.732C26.122,14.608 26.105,14.561 26.045,14.519C25.981,14.496 25.913,14.482 25.845,14.479C25.839,14.466 25.835,14.452 25.835,14.437C25.836,14.423 25.839,14.409 25.845,14.397C25.905,14.397 26.009,14.402 26.114,14.402L26.481,14.402C26.495,14.411 26.506,14.425 26.513,14.44L26.964,15.463L27.045,15.263C27.115,15.099 27.216,14.852 27.36,14.585L27.451,14.41L28.024,14.401C28.032,14.412 28.037,14.425 28.038,14.438C28.038,14.451 28.034,14.465 28.027,14.476C27.964,14.487 27.856,14.487 27.803,14.576C27.785,14.604 27.775,14.632 27.775,14.756L27.775,15.485C27.775,15.765 27.845,15.793 27.875,15.814C27.925,15.828 27.977,15.836 28.029,15.835C28.035,15.847 28.039,15.86 28.039,15.873C28.035,15.9 28.028,15.9 28.025,15.914Z" style="fill-rule:nonzero;"/>
    <path d="M23.843,17.252C23.829,17.252 23.818,17.252 23.798,17.247C23.773,17.167 23.736,17.091 23.686,17.023C23.621,16.933 23.517,16.879 23.406,16.876L23.259,16.876L23.259,18C23.259,18.177 23.343,18.177 23.525,18.2C23.533,18.213 23.536,18.229 23.535,18.244C23.536,18.257 23.534,18.27 23.528,18.281L23.462,18.281C23.354,18.281 23.144,18.274 23.081,18.274C23.036,18.274 22.805,18.285 22.693,18.285C22.685,18.273 22.682,18.259 22.683,18.245C22.684,18.231 22.686,18.218 22.69,18.205C22.931,18.187 22.956,18.142 22.966,18.065L22.966,17.062C22.969,17.001 22.965,16.94 22.956,16.879C22.876,16.876 22.797,16.882 22.718,16.895C22.579,16.963 22.471,17.082 22.418,17.227C22.404,17.231 22.39,17.233 22.376,17.232C22.363,17.232 22.35,17.226 22.341,17.216L22.341,16.828C22.341,16.793 22.348,16.784 22.386,16.784L23.102,16.784C23.462,16.784 23.735,16.775 23.802,16.775C23.84,16.775 23.865,16.775 23.875,16.787C23.885,16.799 23.875,16.822 23.875,16.843L23.875,17.231C23.868,17.242 23.856,17.25 23.843,17.252Z" style="fill-rule:nonzero;"/>
    <path d="M25.72,16.855C25.604,16.858 25.499,16.928 25.451,17.033L24.877,18.311C24.864,18.321 24.848,18.327 24.832,18.33C24.815,18.33 24.79,18.311 24.78,18.271C24.77,18.231 24.696,18.047 24.542,17.699L24.36,17.281C24.294,17.127 24.241,17.026 24.224,16.994C24.174,16.909 24.082,16.856 23.983,16.854C23.973,16.844 23.968,16.83 23.969,16.816C23.968,16.803 23.972,16.79 23.98,16.779L24.074,16.779C24.174,16.779 24.274,16.784 24.35,16.784C24.426,16.784 24.602,16.775 24.71,16.775L24.769,16.775C24.783,16.775 24.787,16.799 24.787,16.808C24.788,16.822 24.785,16.837 24.78,16.85C24.706,16.857 24.553,16.85 24.553,16.95C24.551,16.979 24.556,17.009 24.567,17.036L24.941,17.936L25.259,17.193C25.285,17.13 25.298,17.062 25.297,16.993C25.297,16.909 25.238,16.873 25.08,16.853C25.076,16.842 25.074,16.83 25.073,16.818C25.073,16.803 25.076,16.788 25.08,16.774L25.125,16.774C25.195,16.774 25.265,16.783 25.425,16.783C25.45,16.783 25.561,16.778 25.614,16.778L25.722,16.778C25.729,16.788 25.733,16.799 25.733,16.811C25.734,16.827 25.73,16.842 25.72,16.855Z" style="fill-rule:nonzero;"/>
    <path d="M28.056,18.285L27.448,18.278L27.277,18.278C27.272,18.266 27.269,18.253 27.27,18.24C27.268,18.227 27.272,18.213 27.28,18.202C27.332,18.202 27.383,18.198 27.434,18.188C27.493,18.16 27.518,18.099 27.518,18.008L27.518,16.925L27.511,16.925L27.193,17.625C27.155,17.702 27.116,17.786 27.078,17.87C27.008,18.034 26.966,18.148 26.945,18.213C26.938,18.241 26.913,18.241 26.896,18.241C26.879,18.241 26.865,18.234 26.851,18.199C26.813,18.108 26.784,18.049 26.77,18.01L26.266,16.9L26.256,16.9L26.256,17.183L26.266,17.891C26.266,18.106 26.378,18.208 26.553,18.208C26.559,18.22 26.562,18.232 26.563,18.245C26.564,18.258 26.561,18.27 26.556,18.282L26.476,18.282C26.441,18.282 26.347,18.272 26.186,18.272L25.873,18.272C25.866,18.261 25.863,18.248 25.863,18.235C25.864,18.223 25.867,18.212 25.873,18.202C25.95,18.187 26.024,18.161 26.093,18.125C26.14,18.053 26.16,17.967 26.149,17.882L26.149,17.105C26.149,16.981 26.135,16.934 26.072,16.892C26.008,16.869 25.94,16.855 25.872,16.852C25.863,16.84 25.858,16.825 25.858,16.81C25.859,16.796 25.863,16.782 25.872,16.77C25.928,16.77 26.036,16.775 26.138,16.775L26.509,16.775C26.522,16.785 26.531,16.798 26.537,16.813L26.988,17.836L27.072,17.636C27.165,17.405 27.27,17.178 27.387,16.958C27.415,16.899 27.457,16.823 27.478,16.783L28.048,16.774C28.055,16.786 28.066,16.797 28.066,16.811C28.065,16.825 28.06,16.838 28.052,16.849C27.993,16.859 27.884,16.859 27.832,16.949C27.815,16.977 27.801,17.005 27.801,17.129L27.801,17.858C27.801,18.138 27.871,18.166 27.901,18.187C27.95,18.202 28,18.209 28.051,18.208C28.06,18.219 28.065,18.232 28.065,18.246C28.07,18.269 28.063,18.271 28.056,18.285Z" style="fill-rule:nonzero;"/>
    <path d="M42.539,8.818L42.476,8.1L41.791,8.308C40.126,8.815 38.395,9.071 36.655,9.07C30.631,9.087 25.016,5.958 21.86,0.827L21.364,0L20.864,0.827C17.709,5.959 12.094,9.089 6.07,9.073C4.333,9.075 2.606,8.82 0.944,8.315L0.257,8.107L0.194,8.822C-0.241,13.767 0.056,18.75 1.075,23.609C2.152,28.73 4.006,33.656 6.575,38.215C7.923,40.617 9.46,42.908 11.169,45.068C14.018,48.668 17.323,51.884 21,54.634L21.348,54.893L21.696,54.634C25.38,51.896 28.693,48.691 31.551,45.1C33.261,42.945 34.797,40.656 36.144,38.257C38.596,33.897 40.396,29.201 41.487,24.319L41.63,23.613C42.655,18.752 42.961,13.768 42.539,8.818ZM30.255,12.713L31.112,12.713L31.112,14.388L30.255,14.388L30.255,12.713ZM30.255,17.098L31.112,17.098L31.112,18.775L30.255,18.775L30.255,17.098ZM21.584,10.939C21.925,10.493 22.478,10.261 23.035,10.329L24.689,10.563L26.867,10.85C27.513,10.89 28.159,10.784 28.759,10.541L28.759,19.641C28.151,19.85 27.51,19.946 26.867,19.922L24.767,19.642L23.035,19.4C22.512,19.372 21.996,19.535 21.584,19.858L21.584,10.939ZM14.129,10.558C14.703,10.795 15.324,10.898 15.944,10.858L18.126,10.569L19.776,10.333C20.333,10.265 20.886,10.498 21.227,10.943L21.227,19.868C20.811,19.541 20.29,19.377 19.762,19.406L18.031,19.649L15.944,19.927C14.416,19.927 14.098,19.558 14.094,19.555C14.09,19.552 14.126,11.168 14.13,10.558L14.129,10.558ZM12.884,11.665C13.048,11.632 13.534,11.529 13.772,11.478L13.772,19.658C13.859,19.845 14.234,20.28 15.943,20.28L18.107,19.995L19.761,19.759C20.323,19.692 20.882,19.924 21.23,20.371L21.279,20.343L21.534,20.343L21.583,20.369C21.924,19.923 22.477,19.691 23.034,19.759L24.688,19.993L26.866,20.28C28.6,20.28 29.03,19.824 29.076,19.773L29.108,11.436L29.898,11.656L29.898,20.693C28.86,20.842 27.814,20.924 26.765,20.938C25.367,20.913 23.971,20.815 22.583,20.644L22.383,20.616L22.383,21.228C22.058,21.347 21.715,21.409 21.369,21.413C21.037,21.411 20.707,21.349 20.397,21.23L20.397,20.616L20.197,20.644C18.813,20.815 17.421,20.913 16.026,20.938C14.975,20.924 13.926,20.842 12.886,20.693L12.884,11.665ZM11.684,12.714L12.523,12.714L12.523,14.389L11.684,14.389L11.684,12.714ZM11.684,17.099L12.523,17.099L12.523,18.776L11.684,18.776L11.684,17.099ZM21.348,53.399C17.893,50.779 14.779,47.736 12.079,44.343C12.068,44.329 12.058,44.311 12.047,44.298L21.347,35.249L30.669,44.315C30.655,44.329 30.644,44.35 30.631,44.367C27.927,47.753 24.81,50.787 21.353,53.4L21.348,53.399ZM40.348,24.059C39.291,28.778 37.557,33.32 35.2,37.543L21.357,24.224L7.525,37.515C5.073,33.131 3.292,28.403 2.243,23.49L40.465,23.49L40.348,24.059Z" style="fill-rule:nonzero;"/>
</svg>
